# xmcd
#
# Track frame offsets:
#	150
#	13897
#	31018
#	52982
#	77745
#	94877
#	112633
#	132943
#	153844
#
# Disc length: 2530 seconds
#
# Revision: 1
# Processed by: cddbd v1.5.1PL2 Copyright (c) Steve Scherf et al.
# Submitted via: audiograbber 1.83.01
#
DISCID=5d09e009
DTITLE=ORME - Gioco di bimba
DYEAR=1900
DGENRE=
TTITLE0=Gioco di bimba
TTITLE1=Verita nascoste
TTITLE2=India
TTITLE3=Una dolcezza nuova
TTITLE4=Collage (strumentale)
TTITLE5=Sguardo verso il cielo
TTITLE6=Cemento armato
TTITLE7=Immensa distesa
TTITLE8=La porta chiusa
EXTD=
EXTT0=
EXTT1=
EXTT2=
EXTT3=
EXTT4=
EXTT5=
EXTT6=
EXTT7=
EXTT8=
PLAYORDER=
